<svg data-v-fde0c5aa="" xmlns="http://www.w3.org/2000/svg" viewBox="0 0 300 300" class="font"><!----><defs data-v-fde0c5aa=""><!----></defs><rect data-v-fde0c5aa="" fill="#EDED1B" x="0" y="0" width="300px" height="300px" class="logo-background-square"></rect><defs data-v-fde0c5aa=""><!----></defs><g data-v-fde0c5aa="" id="84e5dc59-456d-402c-bdca-bff87b093fd4" fill="#131619" transform="matrix(2.073906421661377,0,0,2.073906421661377,38.54826550981157,132.07107878040162)"><path d="M2.59 3.72L2.59 3.72L2.59 7.73L5.87 7.73L5.87 3.72L7.76 3.72L7.76 13.52L5.87 13.52L5.87 9.52L4.00 9.52L4.00 9.52Q3.77 9.52 3.53 9.46L3.53 9.46L3.53 9.46Q3.29 9.41 3.10 9.28L3.10 9.28L3.10 9.28Q2.91 9.16 2.77 8.95L2.77 8.95L2.77 8.95Q2.63 8.75 2.59 8.44L2.59 8.44L2.59 13.52L0.70 13.52L0.70 5.22L0.70 5.22Q0.70 4.83 0.86 4.54L0.86 4.54L0.86 4.54Q1.02 4.26 1.28 4.07L1.28 4.07L1.28 4.07Q1.54 3.89 1.88 3.81L1.88 3.81L1.88 3.81Q2.23 3.72 2.59 3.72ZM11.93 13.65L11.93 13.65L11.93 13.65Q11.24 13.65 10.67 13.48L10.67 13.48L10.67 13.48Q10.09 13.30 9.72 12.94L9.72 12.94L9.72 12.94Q9.34 12.59 9.21 12.05L9.21 12.05L9.21 12.05Q9.07 11.51 9.28 10.79L9.28 10.79L9.28 10.79Q9.45 11.10 9.72 11.33L9.72 11.33L9.72 11.33Q10.00 11.56 10.33 11.71L10.33 11.71L10.33 11.71Q10.67 11.86 11.03 11.93L11.03 11.93L11.03 11.93Q11.40 12.00 11.75 11.98L11.75 11.98L11.75 11.98Q12.74 11.96 13.27 11.47L13.27 11.47L13.27 11.47Q13.80 10.99 13.80 9.98L13.80 9.98L13.80 9.98Q13.71 10.23 13.47 10.43L13.47 10.43L13.47 10.43Q13.23 10.63 12.94 10.76L12.94 10.76L12.94 10.76Q12.64 10.89 12.33 10.96L12.33 10.96L12.33 10.96Q12.03 11.03 11.77 11.05L11.77 11.05L11.77 11.05Q11.24 11.07 10.73 10.91L10.73 10.91L10.73 10.91Q10.22 10.74 9.80 10.30L9.80 10.30L9.80 10.30Q9.18 9.69 9.18 8.44L9.18 8.44L9.18 3.72L10.95 3.72L10.95 3.72Q10.95 3.96 10.94 4.36L10.94 4.36L10.94 4.36Q10.93 4.76 10.93 5.24L10.93 5.24L10.93 5.24Q10.93 5.71 10.93 6.22L10.93 6.22L10.93 6.22Q10.93 6.73 10.95 7.19L10.95 7.19L10.95 7.19Q10.96 7.64 10.99 8.00L10.99 8.00L10.99 8.00Q11.02 8.36 11.06 8.53L11.06 8.53L11.06 8.53Q11.17 8.96 11.47 9.19L11.47 9.19L11.47 9.19Q11.77 9.42 12.14 9.41L12.14 9.41L12.14 9.41Q12.38 9.41 12.59 9.33L12.59 9.33L12.59 9.33Q12.80 9.25 12.96 9.12L12.96 9.12L12.96 9.12Q13.12 8.99 13.21 8.81L13.21 8.81L13.21 8.81Q13.30 8.64 13.30 8.43L13.30 8.43L13.30 8.43Q13.50 8.48 13.61 8.61L13.61 8.61L13.61 8.61Q13.73 8.74 13.80 8.92L13.80 8.92L13.80 3.72L15.60 3.72L15.60 10.07L15.60 10.07Q15.60 11.70 14.66 12.68L14.66 12.68L14.66 12.68Q13.73 13.65 11.93 13.65ZM18.54 3.72L18.54 3.72L20.69 3.72L20.69 3.72Q21.83 3.72 22.54 4.24L22.54 4.24L22.54 4.24Q23.25 4.75 23.58 5.51L23.58 5.51L23.58 5.51Q23.91 6.27 23.86 7.16L23.86 7.16L23.86 7.16Q23.81 8.05 23.44 8.81L23.44 8.81L23.44 8.81Q23.06 9.58 22.36 10.09L22.36 10.09L22.36 10.09Q21.66 10.60 20.68 10.60L20.68 10.60L20.68 10.60Q19.94 10.60 19.54 10.35L19.54 10.35L19.54 10.35Q19.14 10.11 19.00 9.77L19.00 9.77L19.00 9.77Q18.86 9.42 18.93 9.04L18.93 9.04L18.93 9.04Q19.00 8.67 19.19 8.39L19.19 8.39L19.19 8.39Q19.26 8.54 19.46 8.62L19.46 8.62L19.46 8.62Q19.66 8.71 19.90 8.75L19.90 8.75L19.90 8.75Q20.15 8.79 20.38 8.79L20.38 8.79L20.38 8.79Q20.62 8.79 20.78 8.76L20.78 8.76L20.78 8.76Q21.15 8.69 21.43 8.43L21.43 8.43L21.43 8.43Q21.70 8.16 21.83 7.81L21.83 7.81L21.83 7.81Q21.97 7.45 21.97 7.05L21.97 7.05L21.97 7.05Q21.97 6.65 21.80 6.31L21.80 6.31L21.80 6.31Q21.64 5.98 21.30 5.76L21.30 5.76L21.30 5.76Q20.96 5.54 20.43 5.54L20.43 5.54L18.84 5.54L18.84 13.52L17.00 13.52L17.00 5.45L17.00 5.45Q17.00 4.68 17.35 4.20L17.35 4.20L17.35 4.20Q17.70 3.72 18.54 3.72ZM26.60 3.72L30.63 3.72L30.63 5.56L26.85 5.56L26.85 7.73L30.63 7.73L30.63 7.73Q30.62 8.05 30.53 8.37L30.53 8.37L30.53 8.37Q30.45 8.69 30.27 8.95L30.27 8.95L30.27 8.95Q30.09 9.20 29.80 9.36L29.80 9.36L29.80 9.36Q29.51 9.52 29.09 9.52L29.09 9.52L26.85 9.52L26.85 11.69L30.63 11.69L30.63 13.52L24.99 13.52L24.99 5.42L24.99 5.42Q24.99 4.61 25.45 4.17L25.45 4.17L25.45 4.17Q25.90 3.72 26.60 3.72L26.60 3.72ZM33.59 3.72L33.59 3.72L35.73 3.72L35.73 3.72Q36.75 3.72 37.44 4.14L37.44 4.14L37.44 4.14Q38.12 4.56 38.49 5.21L38.49 5.21L38.49 5.21Q38.85 5.87 38.90 6.66L38.90 6.66L38.90 6.66Q38.95 7.45 38.72 8.19L38.72 8.19L38.72 8.19Q38.50 8.93 38.00 9.53L38.00 9.53L38.00 9.53Q37.51 10.14 36.78 10.42L36.78 10.42L39.23 13.52L36.95 13.52L34.23 10.08L34.23 10.08Q33.92 9.69 33.96 9.21L33.96 9.21L33.96 9.21Q33.99 8.74 34.23 8.39L34.23 8.39L34.23 8.39Q34.30 8.54 34.50 8.62L34.50 8.62L34.50 8.62Q34.69 8.71 34.94 8.75L34.94 8.75L34.94 8.75Q35.18 8.79 35.42 8.79L35.42 8.79L35.42 8.79Q35.66 8.79 35.83 8.76L35.83 8.76L35.83 8.76Q36.20 8.69 36.48 8.43L36.48 8.43L36.48 8.43Q36.75 8.16 36.88 7.81L36.88 7.81L36.88 7.81Q37.02 7.45 37.02 7.05L37.02 7.05L37.02 7.05Q37.02 6.65 36.86 6.31L36.86 6.31L36.86 6.31Q36.69 5.98 36.35 5.76L36.35 5.76L36.35 5.76Q36.01 5.54 35.48 5.54L35.48 5.54L33.89 5.54L33.89 13.52L32.03 13.52L32.03 5.45L32.03 5.45Q32.03 4.68 32.38 4.20L32.38 4.20L32.38 4.20Q32.73 3.72 33.59 3.72ZM45.74 3.72L49.77 3.72L49.77 5.56L45.99 5.56L45.99 7.73L49.77 7.73L49.77 7.73Q49.76 8.05 49.67 8.37L49.67 8.37L49.67 8.37Q49.59 8.69 49.41 8.95L49.41 8.95L49.41 8.95Q49.22 9.20 48.94 9.36L48.94 9.36L48.94 9.36Q48.65 9.52 48.23 9.52L48.23 9.52L45.99 9.52L45.99 11.69L49.77 11.69L49.77 13.52L44.13 13.52L44.13 5.42L44.13 5.42Q44.13 4.61 44.58 4.17L44.58 4.17L44.58 4.17Q45.04 3.72 45.74 3.72L45.74 3.72ZM54.26 8.50L51.16 3.74L53.27 3.74L55.33 6.87L56.60 4.93L56.60 4.93Q56.88 4.51 57.16 4.21L57.16 4.21L57.16 4.21Q57.43 3.92 57.76 3.77L57.76 3.77L57.76 3.77Q58.09 3.61 58.51 3.61L58.51 3.61L58.51 3.61Q58.93 3.60 59.50 3.74L59.50 3.74L56.38 8.50L59.68 13.52L57.55 13.52L55.33 10.11L53.09 13.52L50.96 13.52L54.26 8.50ZM62.48 3.72L66.51 3.72L66.51 5.56L62.73 5.56L62.73 7.73L66.51 7.73L66.51 7.73Q66.50 8.05 66.42 8.37L66.42 8.37L66.42 8.37Q66.33 8.69 66.15 8.95L66.15 8.95L66.15 8.95Q65.97 9.20 65.68 9.36L65.68 9.36L65.68 9.36Q65.39 9.52 64.97 9.52L64.97 9.52L62.73 9.52L62.73 11.69L66.51 11.69L66.51 13.52L60.87 13.52L60.87 5.42L60.87 5.42Q60.87 4.61 61.33 4.17L61.33 4.17L61.33 4.17Q61.78 3.72 62.48 3.72L62.48 3.72ZM69.47 3.72L69.47 3.72L71.61 3.72L71.61 3.72Q72.63 3.72 73.32 4.14L73.32 4.14L73.32 4.14Q74.00 4.56 74.37 5.21L74.37 5.21L74.37 5.21Q74.73 5.87 74.78 6.66L74.78 6.66L74.78 6.66Q74.83 7.45 74.61 8.19L74.61 8.19L74.61 8.19Q74.38 8.93 73.89 9.53L73.89 9.53L73.89 9.53Q73.39 10.14 72.66 10.42L72.66 10.42L75.11 13.52L72.83 13.52L70.11 10.08L70.11 10.08Q69.80 9.69 69.84 9.21L69.84 9.21L69.84 9.21Q69.87 8.74 70.11 8.39L70.11 8.39L70.11 8.39Q70.18 8.54 70.38 8.62L70.38 8.62L70.38 8.62Q70.57 8.71 70.82 8.75L70.82 8.75L70.82 8.75Q71.06 8.79 71.30 8.79L71.30 8.79L71.30 8.79Q71.54 8.79 71.71 8.76L71.71 8.76L71.71 8.76Q72.09 8.69 72.36 8.43L72.36 8.43L72.36 8.43Q72.63 8.16 72.77 7.81L72.77 7.81L72.77 7.81Q72.90 7.45 72.90 7.05L72.90 7.05L72.90 7.05Q72.90 6.65 72.74 6.31L72.74 6.31L72.74 6.31Q72.58 5.98 72.23 5.76L72.23 5.76L72.23 5.76Q71.89 5.54 71.36 5.54L71.36 5.54L69.78 5.54L69.78 13.52L67.91 13.52L67.91 5.45L67.91 5.45Q67.91 4.68 68.26 4.20L68.26 4.20L68.26 4.20Q68.61 3.72 69.47 3.72ZM76.51 5.57L76.51 3.72L83.22 3.72L83.22 3.72Q83.22 4.16 83.09 4.50L83.09 4.50L83.09 4.50Q82.96 4.84 82.75 5.08L82.75 5.08L82.75 5.08Q82.54 5.32 82.27 5.45L82.27 5.45L82.27 5.45Q82.00 5.57 81.69 5.57L81.69 5.57L80.57 5.57L80.57 13.52L78.68 13.52L78.68 5.57L76.51 5.57ZM86.46 3.72L86.46 13.52L84.62 13.52L84.62 5.19L84.62 5.19Q84.62 4.49 85.12 4.10L85.12 4.10L85.12 4.10Q85.62 3.71 86.46 3.72L86.46 3.72ZM92.79 3.54L92.79 3.54L92.79 3.54Q94.86 3.54 96.33 5.04L96.33 5.04L96.33 5.04Q97.82 6.52 97.82 8.68L97.82 8.68L97.82 8.68Q97.82 10.82 96.36 12.28L96.36 12.28L96.36 12.28Q94.89 13.75 92.81 13.75L92.81 13.75L92.81 13.75Q90.61 13.75 89.17 12.24L89.17 12.24L89.17 12.24Q87.72 10.74 87.72 8.64L87.72 8.64L87.72 8.64Q87.72 8.43 87.75 8.18L87.75 8.18L87.75 8.18Q87.77 7.94 87.81 7.67L87.81 7.67L87.81 7.67Q87.85 7.41 87.92 7.16L87.92 7.16L87.92 7.16Q87.99 6.92 88.10 6.71L88.10 6.71L88.10 6.71Q88.33 6.26 88.73 5.98L88.73 5.98L88.73 5.98Q89.14 5.70 89.59 5.60L89.59 5.60L89.59 5.60Q90.05 5.50 90.50 5.58L90.50 5.58L90.50 5.58Q90.96 5.66 91.29 5.89L91.29 5.89L91.29 5.89Q91.63 6.13 91.78 6.55L91.78 6.55L91.78 6.55Q91.92 6.96 91.78 7.52L91.78 7.52L91.78 7.52Q91.52 7.20 91.13 7.11L91.13 7.11L91.13 7.11Q90.75 7.03 90.40 7.20L90.40 7.20L90.40 7.20Q90.05 7.36 89.81 7.78L89.81 7.78L89.81 7.78Q89.57 8.20 89.60 8.89L89.60 8.89L89.60 8.89Q89.66 10.35 90.75 11.23L90.75 11.23L90.75 11.23Q91.64 11.97 92.81 11.97L92.81 11.97L92.81 11.97Q94.11 11.97 95.03 11.02L95.03 11.02L95.03 11.02Q95.96 10.05 95.96 8.67L95.96 8.67L95.96 8.67Q95.96 7.28 95.03 6.31L95.03 6.31L95.03 6.31Q94.08 5.36 92.76 5.36L92.76 5.36L92.76 5.36Q92.15 5.36 91.64 5.54L91.64 5.54L91.64 5.54Q91.39 5.32 91.05 5.19L91.05 5.19L91.05 5.19Q90.71 5.07 90.32 5.05L90.32 5.05L90.32 5.05Q89.94 5.04 89.55 5.14L89.55 5.14L89.55 5.14Q89.17 5.24 88.83 5.45L88.83 5.45L88.83 5.45Q89.42 4.72 90.24 4.23L90.24 4.23L90.24 4.23Q91.43 3.54 92.79 3.54ZM98.94 13.52L98.94 5.21L98.94 5.21Q98.94 4.91 99.03 4.65L99.03 4.65L99.03 4.65Q99.12 4.38 99.30 4.17L99.30 4.17L99.30 4.17Q99.48 3.96 99.76 3.84L99.76 3.84L99.76 3.84Q100.03 3.72 100.39 3.72L100.39 3.72L100.70 3.72L104.93 10.18L104.93 3.72L106.78 3.72L106.78 13.52L105 13.52L100.79 7.10L100.79 13.52L98.94 13.52Z"></path></g><!----><!----></svg>